Coordinates
version=1
nRows=18
nColumns=63
inDegrees=yes

Units are S.I. units (second, meters, Newtons, ...)
If the header above contains a line with 'inDegrees', this indicates whether rotational values are in degrees (yes) or radians (no).

endheader
time	pelvis_tilt	pelvis_list	pelvis_rotation	pelvis_tx	pelvis_ty	pelvis_tz	hip_flexion_r	hip_adduction_r	hip_rotation_r	knee_angle_r	knee_angle_r_beta	ankle_angle_r	subtalar_angle_r	mtp_angle_r	hip_flexion_l	hip_adduction_l	hip_rotation_l	knee_angle_l	knee_angle_l_beta	ankle_angle_l	subtalar_angle_l	mtp_angle_l	L5_S1_Flex_Ext	L5_S1_Lat_Bending	L5_S1_axial_rotation	L4_L5_Flex_Ext	L4_L5_Lat_Bending	L4_L5_axial_rotation	L3_L4_Flex_Ext	L3_L4_Lat_Bending	L3_L4_axial_rotation	L2_L3_Flex_Ext	L2_L3_Lat_Bending	L2_L3_axial_rotation	L1_L2_Flex_Ext	L1_L2_Lat_Bending	L1_L2_axial_rotation	L1_T12_Flex_Ext	L1_T12_Lat_Bending	L1_T12_axial_rotation	Abs_r3	Abs_r2	Abs_r1	Abs_t1	Abs_t2	neck_flexion	neck_bending	neck_rotation	arm_flex_r	arm_add_r	arm_rot_r	elbow_flex_r	pro_sup_r	wrist_flex_r	wrist_dev_r	arm_flex_l	arm_add_l	arm_rot_l	elbow_flex_l	pro_sup_l	wrist_flex_l	wrist_dev_l
1.830508	-3.956568	5.391366	92.789847	0.249467	0.767526	0.697428	-5.006579	0.502205	-1.972405	4.224778	0.073736	23.965055	-7.169472	0.000000	-6.586839	0.128132	10.723647	0.749066	0.013074	18.806440	-8.026609	0.000000	-0.158681	0.059113	-0.195138	-0.294686	0.078620	-0.207335	-0.260697	0.143726	-0.207335	-0.181356	0.143726	-0.170746	-0.147351	0.120542	-0.158550	-0.090670	0.091565	-0.146354	-1.133442	0.668693	-1.085301	0.000000	0.000000	11.523946	2.750192	-3.605526	63.879050	-42.374623	-35.395837	149.098406	84.943458	12.044300	15.867918	65.579990	-31.529219	-19.464516	149.864950	88.205752	-0.306282	8.827980
1.847458	-3.849415	5.623080	92.774372	0.248870	0.767782	0.698121	-5.176283	0.580629	-2.038799	4.226457	0.073766	24.178181	-6.654605	0.000000	-6.777754	0.043408	10.472165	0.756302	0.013200	18.994808	-7.675528	0.000000	-0.190679	0.085850	-0.236771	-0.354109	0.114180	-0.251569	-0.313266	0.208736	-0.251569	-0.217927	0.208736	-0.207174	-0.177064	0.175065	-0.192376	-0.108954	0.132982	-0.177578	-1.361999	0.971152	-1.316847	0.000000	0.000000	11.246348	2.485507	-2.884732	59.570777	-41.859627	-36.123244	149.778551	86.217521	13.325491	12.023374	61.406775	-31.765295	-20.901598	150.330059	88.007071	1.111830	5.454005
1.864407	-3.744779	5.838818	92.814168	0.248165	0.768028	0.698998	-5.343724	0.658613	-2.128086	4.201878	0.073337	24.333981	-6.155315	0.000000	-6.924648	-0.038323	10.210039	0.775183	0.013529	19.203964	-7.224130	0.000000	-0.220852	0.110708	-0.288849	-0.410144	0.147241	-0.306902	-0.362838	0.269175	-0.306902	-0.252412	0.269175	-0.252743	-0.205083	0.225755	-0.234690	-0.126195	0.171486	-0.216637	-1.577524	1.252347	-1.606490	0.000000	0.000000	10.905983	2.307125	-2.273401	55.208178	-41.397611	-35.704006	150.213126	86.960296	13.374903	7.421714	57.119758	-31.965624	-21.358991	150.570492	87.924772	1.074820	1.585828
1.881356	-3.655087	6.019227	92.935752	0.247370	0.768266	0.699972	-5.500660	0.727004	-2.291490	4.145402	0.072351	24.424854	-5.680296	0.000000	-7.004410	-0.110134	9.810889	0.807793	0.014099	19.477503	-6.469663	0.000000	-0.246551	0.131887	-0.355396	-0.457870	0.175409	-0.377608	-0.405059	0.320669	-0.377608	-0.281783	0.320669	-0.310972	-0.228947	0.268943	-0.288759	-0.140879	0.204293	-0.266547	-1.761090	1.491930	-1.976607	0.000000	0.000000	10.531997	2.215464	-1.764218	50.724710	-40.981181	-34.229550	150.439957	86.946433	12.050098	2.274519	52.714593	-32.189598	-20.859514	150.578486	87.930404	-0.110128	-2.826237
1.898305	-3.559777	6.138305	93.100862	0.246483	0.768496	0.700957	-5.617364	0.797542	-2.528357	4.063338	0.070919	24.422965	-5.220630	0.000000	-6.998087	-0.182707	9.286901	0.844275	0.014735	19.823366	-5.508337	0.000000	-0.263692	0.152837	-0.418348	-0.489703	0.203273	-0.444495	-0.433220	0.371607	-0.444495	-0.301374	0.371607	-0.366054	-0.244864	0.311665	-0.339908	-0.150674	0.236744	-0.313761	-1.883526	1.728919	-2.326725	0.000000	0.000000	10.145720	2.143000	-1.422318	46.103203	-40.676901	-31.766030	150.484823	85.973600	9.166344	-3.195831	48.244027	-32.478177	-19.253041	150.408020	88.418904	-3.029656	-7.704978
1.915254	-3.488811	6.186560	93.342831	0.245569	0.768714	0.701868	-5.692649	0.848788	-2.801220	3.958105	0.069082	24.312354	-4.915113	0.000000	-6.898121	-0.234852	8.634294	0.884881	0.015444	20.236449	-4.293929	0.000000	-0.272212	0.171527	-0.495701	-0.505524	0.228131	-0.526683	-0.447217	0.417051	-0.526683	-0.311111	0.417051	-0.433739	-0.252776	0.349778	-0.402757	-0.155542	0.265695	-0.371776	-1.944381	1.940349	-2.756942	0.000000	0.000000	9.799006	2.101789	-0.980815	41.433449	-40.362623	-28.491751	150.437277	84.543689	5.024608	-7.990923	43.621804	-32.937104	-17.055059	150.170419	89.106273	-6.305361	-12.618417
1.932203	-3.450204	6.156881	93.637854	0.244703	0.768922	0.702650	-5.712847	0.869185	-3.154346	3.847054	0.067144	24.109285	-4.698025	0.000000	-6.706886	-0.257261	7.854831	0.926764	0.016175	20.690372	-2.889199	0.000000	-0.273504	0.187440	-0.581910	-0.507925	0.249295	-0.618279	-0.449340	0.455742	-0.618279	-0.312588	0.455742	-0.509171	-0.253976	0.382228	-0.472802	-0.156280	0.290345	-0.436432	-1.953615	2.120361	-3.236407	0.000000	0.000000	9.576430	2.064538	-0.419775	36.771112	-40.076910	-24.660147	150.291408	83.097851	0.655092	-11.845406	38.873952	-33.566246	-14.648224	149.998884	89.374437	-8.616646	-16.663333
1.949153	-3.404741	6.025822	93.957084	0.243837	0.769098	0.703255	-5.640067	0.890151	-3.566539	3.750098	0.065452	23.796531	-4.602165	0.000000	-6.402165	-0.284108	6.919856	0.981315	0.017127	21.181536	-1.296631	0.000000	-0.263678	0.206808	-0.665562	-0.489677	0.275055	-0.707160	-0.433197	0.502833	-0.707160	-0.301358	0.502833	-0.582367	-0.244852	0.421723	-0.540769	-0.150666	0.320346	-0.499172	-1.883429	2.339455	-3.701657	0.000000	0.000000	9.467009	1.955740	0.260721	32.230560	-39.922341	-20.553408	150.113759	82.465517	-2.941286	-14.754911	34.029143	-34.345415	-12.137985	149.948603	89.294370	-9.836046	-19.626559
1.966102	-3.367914	5.792178	94.295405	0.243056	0.769207	0.703637	-5.471765	0.899627	-4.053846	3.673646	0.064117	23.408798	-4.588920	0.000000	-5.995657	-0.303072	5.922529	1.043499	0.018213	21.659282	0.346594	0.000000	-0.245568	0.223630	-0.730719	-0.456045	0.297428	-0.776389	-0.403444	0.543734	-0.776389	-0.280660	0.543734	-0.639379	-0.228035	0.456026	-0.593709	-0.140318	0.346403	-0.548039	-1.754069	2.529747	-4.064038	0.000000	0.000000	9.581600	1.846375	0.828022	27.738172	-40.011919	-16.568773	150.008493	82.040311	-5.765391	-16.575739	29.156122	-35.196743	-9.466548	149.937069	88.281459	-9.883951	-21.550048
1.983051	-3.339472	5.445632	94.650036	0.242362	0.769186	0.703758	-5.195096	0.896110	-4.614886	3.623116	0.063235	22.993543	-4.627418	0.000000	-5.483309	-0.313225	4.920888	1.114666	0.019455	22.105150	1.957701	0.000000	-0.218983	0.236590	-0.770122	-0.406673	0.314665	-0.818254	-0.359767	0.575245	-0.818254	-0.250276	0.575245	-0.673856	-0.203348	0.482455	-0.625724	-0.125127	0.366478	-0.577591	-1.564174	2.676355	-4.283186	0.000000	0.000000	9.973371	1.738914	1.190596	23.123561	-40.311880	-13.078400	150.041287	81.879635	-7.986250	-17.260220	24.308845	-36.079929	-6.705867	149.937515	86.455013	-9.054867	-22.555570
2.000000	-3.300565	4.988310	95.006807	0.241691	0.768983	0.703606	-4.801645	0.893723	-5.242633	3.612578	0.063051	22.592539	-4.685504	0.000000	-4.872801	-0.328105	3.984327	1.190723	0.020782	22.522177	3.428099	0.000000	-0.184911	0.248729	-0.786124	-0.343398	0.330809	-0.835256	-0.303790	0.604759	-0.835256	-0.211335	0.604759	-0.687858	-0.171708	0.507208	-0.638725	-0.105658	0.385281	-0.589593	-1.320801	2.813669	-4.372183	0.000000	0.000000	10.659196	1.594790	1.361318	18.266832	-40.701876	-10.280551	150.161983	82.033761	-9.822556	-17.116001	19.490722	-36.968471	-3.991742	149.957769	84.332759	-7.919033	-22.915846
2.016949	-3.257111	4.422392	95.363198	0.241062	0.768555	0.703168	-4.294572	0.888426	-5.918647	3.637378	0.063484	22.241014	-4.755049	0.000000	-4.170628	-0.342532	3.144299	1.267076	0.022115	22.921130	4.727680	0.000000	-0.143341	0.257656	-0.791726	-0.266198	0.342683	-0.841209	-0.235494	0.626466	-0.841209	-0.163824	0.626466	-0.692760	-0.133106	0.525413	-0.643277	-0.081905	0.399110	-0.593794	-1.023868	2.914661	-4.403342	0.000000	0.000000	11.619990	1.459096	1.330691	13.137188	-41.093674	-8.216511	150.309965	82.387826	-11.422084	-16.394623	14.662389	-37.784632	-1.526002	150.085765	82.335778	-6.787167	-22.544893
2.033898	-3.220986	3.774410	95.706654	0.240523	0.767897	0.702465	-3.697136	0.872645	-6.603709	3.697619	0.064536	21.974004	-4.846829	0.000000	-3.406370	-0.346158	2.411949	1.341570	0.023415	23.313626	5.831887	0.000000	-0.097070	0.260362	-0.796832	-0.180269	0.346282	-0.846634	-0.159476	0.633045	-0.846634	-0.110941	0.633045	-0.697228	-0.090139	0.530931	-0.647426	-0.055466	0.403301	-0.597624	-0.693361	2.945270	-4.431743	0.000000	0.000000	12.816817	1.385189	1.082132	7.803963	-41.429845	-6.816126	150.436836	82.531409	-12.839911	-15.150597	9.826581	-38.462027	0.553138	150.346654	80.536525	-5.711874	-21.406017
2.050847	-3.192242	3.072934	96.013251	0.240076	0.767036	0.701564	-3.024249	0.844685	-7.255552	3.806084	0.066429	21.802796	-4.951139	0.000000	-2.610445	-0.338235	1.812834	1.410973	0.024626	23.689404	6.698763	0.000000	-0.048130	0.257791	-0.806539	-0.089382	0.342862	-0.856948	-0.079072	0.626793	-0.856948	-0.055007	0.626793	-0.705722	-0.044693	0.525687	-0.655313	-0.027501	0.399318	-0.604904	-0.343786	2.916181	-4.485728	0.000000	0.000000	14.186610	1.368472	0.692253	2.436853	-41.678580	-5.954637	150.491532	81.907893	-13.887553	-13.273473	4.996218	-38.948050	2.118759	150.641109	78.976040	-4.524565	-19.725940
2.067797	-3.160374	2.362175	96.249932	0.239709	0.766031	0.700483	-2.324888	0.815934	-7.832442	3.943818	0.068833	21.740307	-5.064456	0.000000	-1.838824	-0.325442	1.349263	1.464155	0.025554	24.043584	7.273571	0.000000	0.000454	0.251943	-0.812909	0.000844	0.335084	-0.863716	0.000746	0.612575	-0.863716	0.000519	0.612575	-0.711295	0.000422	0.513762	-0.660489	0.000260	0.390260	-0.609682	0.003245	2.850031	-4.521156	0.000000	0.000000	15.643716	1.368694	0.138028	-2.837172	-41.827254	-5.616570	150.450437	80.448139	-14.405430	-10.802613	0.261048	-39.222637	3.198834	150.852532	77.762163	-3.131921	-17.564505
2.084746	-3.118528	1.677075	96.389318	0.239417	0.764912	0.699324	-1.615036	0.790059	-8.314047	4.135746	0.072182	21.803621	-5.147546	0.000000	-1.126048	-0.314458	0.985198	1.504064	0.026251	24.371563	7.603875	0.000000	0.045257	0.247500	-0.831787	0.084046	0.329175	-0.883773	0.074352	0.601772	-0.883773	0.051724	0.601772	-0.727813	0.042025	0.504702	-0.675827	0.025860	0.383378	-0.623840	0.323264	2.799772	-4.626148	0.000000	0.000000	17.126486	1.350313	-0.289225	-7.698021	-41.848453	-5.359848	150.253334	78.075786	-14.458688	-7.640006	-4.443669	-39.320623	3.678463	150.893860	76.990507	-1.776903	-15.131074
2.101695	-3.078933	1.047058	96.434829	0.239219	0.763731	0.698135	-0.931020	0.758973	-8.706453	4.368236	0.076240	21.997322	-5.165932	0.000000	-0.505867	-0.297248	0.743045	1.529889	0.026702	24.636731	7.688876	0.000000	0.084634	0.242889	-0.865863	0.157174	0.323042	-0.919979	0.139046	0.590559	-0.919979	0.096729	0.590559	-0.757630	0.078591	0.495298	-0.703514	0.048360	0.376234	-0.649397	0.604535	2.747605	-4.815670	0.000000	0.000000	18.557240	1.323441	-0.569125	-12.034226	-41.735165	-5.055289	149.828673	75.033078	-13.960742	-3.972728	-9.062347	-39.220491	3.528082	150.689723	76.635750	-0.366895	-12.366707
2.118644	-3.042830	0.498439	96.367949	0.239127	0.762526	0.696970	-0.294476	0.723835	-8.950441	4.644284	0.081058	22.312956	-5.154877	0.000000	-0.009507	-0.273171	0.671550	1.537793	0.026840	24.801482	7.453597	0.000000	0.116577	0.237155	-0.906371	0.216495	0.315416	-0.963020	0.191524	0.576618	-0.963020	0.133236	0.576618	-0.793075	0.108253	0.483606	-0.736427	0.066612	0.367352	-0.679779	0.832698	2.682740	-5.040966	0.000000	0.000000	19.876554	1.345522	-0.754881	-15.753326	-41.516836	-4.794000	149.093466	71.624173	-12.414315	0.057331	-13.512828	-38.835491	2.844195	150.184166	76.686875	1.127730	-9.206999
